name analog
datacolumns 19
datarows 46
range 0.0 0.0225
endheader
time	ground_force_vx	ground_force_vy	ground_force_vz	ground_force_px	ground_force_py	ground_force_pz	l_ground_force_vx	l_ground_force_vy	l_ground_force_vz	l_ground_force_px	l_ground_force_py	l_ground_force_pz	ground_torque_x	ground_torque_y	ground_torque_z	l_ground_torque_x	l_ground_torque_y	l_ground_torque_z
0.0	-0.0	-0.0	-0.0	-0.5348173379898071	14.438457489013672	-359.8872985839844	-0.8870472311973572	-15.191329956054688	-366.9576721191406	-0.0	-0.0	-0.0	-0.0	-0.0	-0.0	111019.7421875	17379.279296875	-2792.848388671875
0.0005	-0.0	-0.0	-0.0	-0.713546872138977	14.2608642578125	-360.2408142089844	-0.7095814347267151	-15.456191062927246	-366.2599182128906	-0.0	-0.0	-0.0	-0.0	-0.0	-0.0	111231.8828125	17272.86328125	-2763.22119140625
0.001	-0.0	-0.0	-0.0	-0.714388370513916	13.548524856567385	-360.9457092285156	-0.8871004581451416	-15.191333770751951	-366.609130859375	-0.0	-0.0	-0.0	-0.0	-0.0	-0.0	111349.3984375	17437.5546875	-2763.25
0.0015	-0.0	-0.0	-0.0	-0.8026796579360962	14.527181625366213	-356.7236328125	-0.9755223989486694	-15.368057250976562	-369.4010620117188	-0.0	-0.0	-0.0	-0.0	-0.0	-0.0	111625.2109375	17782.25	-2911.64501953125
0.002	-0.0	-0.0	-0.0	-1.070526123046875	14.259902000427246	-358.84033203125	-1.0647335052490234	-15.721056938171388	-367.6564025878906	-0.0	-0.0	-0.0	-0.0	-0.0	-0.0	111577.59375	17835.25390625	-2911.7353515625
0.0025	-0.0	-0.0	-0.0	-0.9835528135299684	14.261143684387209	-359.8892822265625	-0.7990370988845825	-15.191435813903809	-369.0532836914063	-0.0	-0.0	-0.0	-0.0	-0.0	-0.0	111747.234375	17908.220703125	-2970.86669921875
0.003	-0.0	-0.0	-0.0	-1.1597366333007812	14.527936935424805	-358.83837890625	-1.154402494430542	-15.63308334350586	-368.3544006347656	-0.0	-0.0	-0.0	-0.0	-0.0	-0.0	111903.3046875	18063.212890625	-2941.677490234375
0.0035	-0.0	-0.0	-0.0	-1.4259908199310305	13.906407356262209	-359.5344543457031	-1.1527272462844849	-15.191329956054688	-369.05126953125	-0.0	-0.0	-0.0	-0.0	-0.0	-0.0	111945.2890625	18063.388671875	-3030.181640625
0.004	-0.0	-0.0	-0.0	-1.3396902084350586	14.258567810058594	-360.24200439453125	-1.5074546337127686	-15.632729530334473	-369.0516357421875	-0.0	-0.0	-0.0	-0.0	-0.0	-0.0	112035.390625	18509.15234375	-3060.509033203125
0.0045000000000000005	-0.0	-0.0	-0.0	-1.3368916511535645	14.172155380249023	-357.7779846191406	-1.2429437637329102	-15.456542015075684	-369.40142822265625	-0.0	-0.0	-0.0	-0.0	-0.0	-0.0	111894.1796875	18408.009765625	-3178.696044921875
0.005	-0.0	-0.0	-0.0	-1.7828277349472046	13.905263900756836	-357.419921875	-1.5083701610565186	-15.456866264343262	-368.008056640625	-0.0	-0.0	-0.0	-0.0	-0.0	-0.0	112223.7265625	18624.990234375	-3090.15478515625
0.0055	-0.0	-0.0	-0.0	-1.1621719598770142	14.350481033325195	-357.0630187988281	-1.6864436864852903	-15.456917762756348	-369.75775146484375	-0.0	-0.0	-0.0	-0.0	-0.0	-0.0	112421.8984375	18789.884765625	-3149.513427734375
0.006	-0.0	-0.0	-0.0	-1.247895359992981	14.70493984222412	-357.06494140625	-1.6858564615249634	-15.543916702270508	-369.3996276855469	-0.0	-0.0	-0.0	-0.0	-0.0	-0.0	112163.8671875	18732.525390625	-3268.07373046875
0.006500000000000001	-0.0	-0.0	-0.0	-1.0727851390838623	14.437996864318848	-357.7690734863281	-1.5971843004226685	-15.632161140441896	-369.7531127929688	-0.0	-0.0	-0.0	-0.0	-0.0	-0.0	112101.90625	18911.576171875	-3297.945556640625
0.007	-0.0	-0.0	-0.0	-0.9824893474578856	14.352339744567873	-356.0123291015625	-1.7754522562026978	-15.63129711151123	-369.399169921875	-0.0	-0.0	-0.0	-0.0	-0.0	-0.0	112299.3203125	19133.505859375	-3297.528076171875
0.0075	-0.0	-0.0	-0.0	-1.6051634550094604	14.527629852294922	-356.3536376953125	-2.0398972034454346	-15.36797332763672	-370.7901306152344	-0.0	-0.0	-0.0	-0.0	-0.0	-0.0	112352.0546875	19295.15234375	-3268.7001953125
0.008	-0.0	-0.0	-0.0	-1.4273681640625	14.353314399719238	-354.6137084960937	-2.657897472381592	-15.367486000061035	-369.40625	-0.0	-0.0	-0.0	-0.0	-0.0	-0.0	112284.2734375	19260.359375	-3298.174560546875
0.0085	-0.0	-0.0	-0.0	-1.428749442100525	14.170353889465332	-356.3640441894531	-2.304419040679932	-15.54307746887207	-369.7576599121094	-0.0	-0.0	-0.0	-0.0	-0.0	-0.0	112493.375	19280.349609375	-3268.8037109375
0.009000000000000001	-0.0	-0.0	-0.0	-1.7849396467208862	14.61301326751709	-357.7597351074219	-1.866250276565552	-15.895145416259766	-370.441162109375	-0.0	-0.0	-0.0	-0.0	-0.0	-0.0	112710.1328125	19419.6953125	-3474.5751953125
0.0095	-0.0	-0.0	-0.0	-1.6926946640014648	14.17250156402588	-357.0679931640625	-2.1284661293029785	-15.894363403320312	-371.4903259277344	-0.0	-0.0	-0.0	-0.0	-0.0	-0.0	112843.671875	19524.0859375	-3299.052001953125
0.01	-0.0	-0.0	-0.0	-1.7834160327911377	14.435157775878906	-358.1181640625	-2.042202949523926	-15.544000625610352	-372.5326232910156	-0.0	-0.0	-0.0	-0.0	-0.0	-0.0	112891.96875	19701.2734375	-3329.013671875
0.0105	-0.0	-0.0	-0.0	-1.9617981910705569	13.640280723571776	-358.474365234375	-2.30582332611084	-15.543962478637695	-372.2085571289063	-0.0	-0.0	-0.0	-0.0	-0.0	-0.0	113285.421875	19746.45703125	-3357.62451171875
0.011	-0.0	-0.0	-0.0	-2.0492260456085205	14.783451080322266	-358.4776611328125	-1.952332854270935	-15.808197021484377	-372.8939208984375	-0.0	-0.0	-0.0	-0.0	-0.0	-0.0	113169.40625	19590.80078125	-3417.4658203125
0.0115	-0.0	-0.0	-0.0	-2.2275681495666504	13.636951446533203	-358.8521423339844	-2.306480407714844	-15.456295013427734	-374.6311950683594	-0.0	-0.0	-0.0	-0.0	-0.0	-0.0	113216.078125	19861.572265625	-3506.164306640625
0.012	-0.0	-0.0	-0.0	-1.9607573747634888	14.256183624267578	-358.128173828125	-2.7454726696014404	-15.459322929382324	-374.9888305664063	-0.0	-0.0	-0.0	-0.0	-0.0	-0.0	113416.1484375	19722.98828125	-3505.7275390625
0.0125	-0.0	-0.0	-0.0	-2.234165906906128	14.171733856201172	-360.5542602539063	-2.5718138217926025	-15.893131256103516	-375.6651306152344	-0.0	-0.0	-0.0	-0.0	-0.0	-0.0	113705.84375	20023.15234375	-3594.947509765625
0.013000000000000001	-0.0	-0.0	-0.0	-1.784210205078125	14.349994659423828	-356.75994873046875	-2.749196767807007	-15.54461669921875	-375.67724609375	-0.0	-0.0	-0.0	-0.0	-0.0	-0.0	113621.203125	20302.03515625	-3565.028076171875
0.0135	-0.0	-0.0	-0.0	-1.8734207153320312	14.261903762817385	-357.7630615234375	-2.7491707801818848	-15.635518074035645	-374.6465148925781	-0.0	-0.0	-0.0	-0.0	-0.0	-0.0	114148.5390625	20245.25	-3653.737060546875
0.014	-0.0	-0.0	-0.0	-1.961551547050476	13.55537223815918	-358.813720703125	-2.83423376083374	-15.547311782836914	-374.2940673828125	-0.0	-0.0	-0.0	-0.0	-0.0	-0.0	114078.5703125	20241.048828125	-3447.596435546875
0.0145	-0.0	-0.0	-0.0	-1.5221714973449707	14.082603454589844	-357.4313659667969	-2.662264347076416	-15.54461669921875	-374.9962463378906	-0.0	-0.0	-0.0	-0.0	-0.0	-0.0	113948.1640625	20192.587890625	-3625.483642578125
0.015	-0.0	-0.0	-0.0	-2.145632266998291	14.175166130065918	-355.99176025390625	-2.7510015964508057	-15.715482711791992	-374.6282958984375	-0.0	-0.0	-0.0	-0.0	-0.0	-0.0	113894.171875	19955.548828125	-3594.650390625
0.0155	-0.0	-0.0	-0.0	-2.0577609539031982	13.72963047027588	-356.73046875	-2.75104022026062	-15.54762077331543	-375.6792297363281	-0.0	-0.0	-0.0	-0.0	-0.0	-0.0	113689.140625	20361.755859375	-3448.9521484375
0.016	-0.0	-0.0	-0.0	-2.314582586288452	14.613720893859863	-357.37451171875	-2.7521231174468994	-15.4594144821167	-374.2946472167969	-0.0	-0.0	-0.0	-0.0	-0.0	-0.0	114011.921875	20647.41015625	-3536.603271484375
0.0165	-0.0	-0.0	-0.0	-1.9626312255859373	14.1692476272583	-355.29901123046875	-3.192522525787353	-15.809581756591797	-377.0543823242188	-0.0	-0.0	-0.0	-0.0	-0.0	-0.0	114160.5546875	20395.1640625	-3625.299072265625
0.017	-0.0	-0.0	-0.0	-2.0505588054656982	14.085166931152344	-356.0205993652344	-2.5748214721679688	-15.636237144470217	-373.9501037597656	-0.0	-0.0	-0.0	-0.0	-0.0	-0.0	113689.828125	20256.162109375	-3594.043701171875
0.0175	-0.0	-0.0	-0.0	-2.0452327728271484	14.340750694274902	-356.7065124511719	-2.7511773109436035	-15.899041175842283	-376.0138244628906	-0.0	-0.0	-0.0	-0.0	-0.0	-0.0	113967.3359375	20189.5625	-3567.20849609375
0.018000000000000002	-0.0	-0.0	-0.0	-2.230262756347656	13.905689239501951	-356.3425598144531	-2.837576150894165	-15.80725383758545	-374.29974365234375	-0.0	-0.0	-0.0	-0.0	-0.0	-0.0	113894.9609375	20357.384765625	-3596.5546875
0.0185	-0.0	-0.0	-0.0	-1.784210205078125	14.082603454589844	-355.9888916015625	-3.539978265762329	-15.897903442382812	-375.6633605957031	-0.0	-0.0	-0.0	-0.0	-0.0	-0.0	113708.203125	20432.09375	-3508.931396484375
0.019	-0.0	-0.0	-0.0	-1.9483747482299805	14.344297409057615	-355.9997253417969	-2.488886833190918	-15.897903442382812	-375.6380920410156	-0.0	-0.0	-0.0	-0.0	-0.0	-0.0	113577.171875	20262.345703125	-3597.240478515625
0.0195	-0.0	-0.0	-0.0	-1.6920952796936035	13.910146713256836	-353.9035339355469	-2.843835592269897	-15.644341468811035	-374.2855224609375	-0.0	-0.0	-0.0	-0.0	-0.0	-0.0	113952.6796875	20473.447265625	-3770.350341796875
0.02	-0.0	-0.0	-0.0	-2.126143455505371	13.991983413696287	-355.94635009765625	-3.197521448135376	-15.631632804870604	-374.9939880371094	-0.0	-0.0	-0.0	-0.0	-0.0	-0.0	113755.34375	20625.171875	-3657.113525390625
0.0205	-0.0	-0.0	-0.0	-0.9904939532279968	14.694289207458496	-355.3050537109375	-3.3696601390838623	-15.810925483703612	-374.65032958984375	-0.0	-0.0	-0.0	-0.0	-0.0	-0.0	113898.0234375	20500.91796875	-3744.98388671875
0.021	-0.0	-0.0	-0.0	-1.8749892711639404	13.63851833343506	-355.3238525390625	-3.369621515274048	-15.893756866455078	-374.3014526367188	-0.0	-0.0	-0.0	-0.0	-0.0	-0.0	113836.34375	20557.158203125	-3684.7744140625
0.021500000000000002	-0.0	-0.0	-0.0	-1.790589451789856	13.993473052978516	-356.3396301269531	-3.548431396484375	-16.078771591186523	-374.3128051757813	-0.0	-0.0	-0.0	-0.0	-0.0	-0.0	113975.4609375	20664.494140625	-3743.8037109375
0.022	-0.0	-0.0	-0.0	-2.142685890197754	14.336936950683594	-355.6392822265625	-3.551337480545044	-15.727046966552734	-376.3511352539063	-0.0	-0.0	-0.0	-0.0	-0.0	-0.0	114026.6328125	20377.748046875	-3745.647216796875
0.0225	-0.0	-0.0	-0.0	-2.5770697593688965	13.732766151428224	-355.3056335449219	-3.36653470993042	-15.81106662750244	-375.6812744140625	-0.0	-0.0	-0.0	-0.0	-0.0	-0.0	114029.6953125	20333.58984375	-3628.415771484375
